<?xml version="1.0" standalone="no"?>
<!DOCTYPE svg PUBLIC "-//W3C//DTD SVG 20010904//EN"
 "http://www.w3.org/TR/2001/REC-SVG-20010904/DTD/svg10.dtd">
<svg version="1.0" xmlns="http://www.w3.org/2000/svg"
 width="260.000000pt" height="260.000000pt" viewBox="0 0 260.000000 260.000000"
 preserveAspectRatio="xMidYMid meet">
<metadata>
Created by potrace 1.11, written by Peter Selinger 2001-2013
</metadata>
<g transform="translate(0.000000,260.000000) scale(0.100000,-0.100000)"
fill="#000000" stroke="none">
<path d="M1188 2522 c-17 -3 -18 -51 -18 -823 l0 -819 100 0 100 0 0 565 0
565 125 0 125 0 0 -565 0 -565 240 0 240 0 0 -115 0 -115 -239 0 -238 0 -6
-83 c-11 -153 -50 -256 -128 -341 -75 -83 -191 -135 -332 -151 -32 -4 -57 -9
-54 -11 22 -23 323 -22 427 1 14 3 37 7 52 10 15 3 38 9 52 15 15 5 26 7 26 4
0 -4 7 0 17 7 9 8 18 12 20 10 12 -10 223 87 223 102 0 6 3 7 6 4 8 -8 64 24
64 35 0 4 7 8 15 8 8 0 15 5 15 10 0 6 4 10 10 10 13 0 48 29 127 106 35 33
63 58 63 55 0 -3 8 6 17 19 17 25 27 36 70 88 13 15 23 33 23 40 0 7 7 15 15
18 8 4 15 12 15 19 0 8 7 21 16 29 8 9 12 16 7 16 -4 0 -3 4 2 8 11 8 56 100
52 106 -1 1 3 9 9 17 9 11 43 101 50 132 1 4 2 8 3 10 2 1 5 13 8 27 8 40 11
55 13 55 1 0 4 11 6 25 1 14 6 48 10 75 14 98 9 297 -11 400 -20 100 -78 260
-128 355 -33 60 -125 193 -139 198 -4 2 -8 8 -8 13 0 17 -194 196 -222 205
-10 3 -18 10 -18 16 0 6 -3 9 -6 5 -3 -3 -14 2 -24 11 -22 21 -172 98 -182 94
-5 -1 -8 3 -8 10 0 6 -3 9 -6 5 -4 -3 -24 3 -45 14 -22 11 -39 17 -39 14 0 -2
-11 0 -25 5 -14 5 -36 12 -48 15 -12 2 -40 9 -62 14 -22 5 -58 13 -80 16 -45
8 -271 13 -297 7z"/>
<path d="M805 2422 c-202 -93 -355 -213 -493 -387 -30 -39 -92 -140 -92 -151
0 -8 -4 -14 -8 -14 -5 0 -15 -18 -22 -40 -7 -22 -17 -40 -22 -40 -4 0 -7 -3
-6 -7 1 -8 -5 -25 -22 -68 -14 -35 -42 -129 -45 -155 -2 -14 -4 -25 -5 -25 -3
0 -10 -43 -18 -110 -33 -291 43 -593 212 -845 48 -73 235 -270 254 -270 6 0
12 -4 14 -8 4 -10 78 -61 130 -90 l37 -21 -36 47 c-70 91 -103 197 -106 339
l-2 78 85 12 c47 6 99 12 116 12 l31 1 6 -68 c18 -192 96 -288 242 -300 179
-14 288 81 302 262 l6 76 -227 0 -226 0 0 905 c0 718 -3 905 -12 904 -7 0 -49
-17 -93 -37z"/>
</g>
</svg>
